<?xml version="1.0" standalone="no"?>
<!DOCTYPE svg PUBLIC "-//W3C//DTD SVG 20010904//EN"
 "http://www.w3.org/TR/2001/REC-SVG-20010904/DTD/svg10.dtd">
<svg version="1.0" xmlns="http://www.w3.org/2000/svg"
 width="500.000000pt" height="500.000000pt" viewBox="0 0 500.000000 500.000000"
 preserveAspectRatio="xMidYMid meet">

<g transform="translate(0.000000,500.000000) scale(0.100000,-0.100000)"
fill="#000000" stroke="none">
<path d="M0 2500 l0 -2500 2500 0 2500 0 0 2500 0 2500 -2500 0 -2500 0 0
-2500z m2147 968 l143 -82 0 -164 c0 -146 -2 -163 -16 -158 -8 3 -74 40 -144
81 l-129 75 -578 -334 -578 -333 -3 -161 c-1 -89 -5 -162 -7 -162 -3 0 -66 35
-140 77 l-135 78 2 169 3 169 715 413 c393 227 717 413 720 414 3 0 69 -37
147 -82z m-732 -1906 c-2 -2 -66 31 -142 75 l-138 80 0 334 0 333 140 82 140
82 3 -491 c1 -269 0 -492 -3 -495z m1295 892 c45 -18 79 -59 90 -109 7 -33 7
-33 -40 -42 l-48 -10 -15 39 c-15 36 -27 43 -67 38 -36 -4 -53 -75 -29 -123 6
-12 46 -56 88 -97 43 -41 87 -95 99 -121 39 -81 24 -170 -36 -221 -94 -79
-240 -27 -271 97 -14 56 -8 65 50 65 32 0 38 -4 44 -27 11 -48 33 -73 63 -73
33 0 45 8 61 38 23 44 4 81 -99 188 -88 91 -99 107 -110 155 -34 150 83 258
220 203z m-845 -16 c9 -42 105 -627 105 -643 0 -13 -10 -15 -52 -13 l-53 3 -7
55 c-15 105 -12 101 -71 98 l-52 -3 -12 -75 c-6 -41 -12 -76 -12 -77 -1 -2
-25 -3 -54 -3 l-53 0 53 313 c29 171 55 324 59 340 5 26 7 27 75 27 63 0 69
-2 74 -22z m440 0 c3 -13 30 -166 59 -340 l53 -318 -54 0 c-29 0 -53 1 -54 3
0 1 -6 36 -12 77 l-12 75 -52 3 c-59 3 -56 7 -71 -98 l-7 -55 -53 -3 c-40 -2
-52 0 -52 11 0 14 93 577 106 640 5 26 7 27 75 27 63 0 69 -2 74 -22z m695
-123 l0 -145 60 0 60 0 0 145 0 145 55 0 55 0 0 -340 0 -340 -55 0 -55 0 0
145 0 145 -60 0 -60 0 0 -145 0 -145 -50 0 -50 0 0 340 0 340 50 0 50 0 0
-145z m420 -195 l0 -340 -50 0 -50 0 0 340 0 340 50 0 50 0 0 -340z m240 338
c1 -15 91 -462 94 -465 2 -2 18 74 36 169 18 95 38 200 44 233 l12 60 72 3 72
3 0 -341 0 -340 -50 0 -50 0 -1 203 c-1 233 -3 231 -60 -45 l-32 -158 -42 0
-41 0 -44 188 c-23 103 -47 194 -51 202 -5 8 -9 -75 -9 -187 l0 -203 -50 0
-50 0 0 340 0 340 75 0 c41 0 75 -1 75 -2z"/>
<path d="M1771 2172 c-7 -53 -14 -105 -17 -114 -4 -15 1 -18 33 -18 l39 0 -15
109 c-9 60 -19 112 -22 115 -3 3 -11 -38 -18 -92z"/>
<path d="M2227 2260 c-3 -8 -12 -61 -20 -117 l-13 -103 37 0 c37 0 38 1 33 33
-3 17 -11 70 -18 117 -7 47 -16 78 -19 70z"/>
</g>
</svg>
